<?xml version="1.0" standalone="no"?><!DOCTYPE svg PUBLIC "-//W3C//DTD SVG 1.1//EN" "http://www.w3.org/Graphics/SVG/1.1/DTD/svg11.dtd"><svg t="1560683238989" class="icon" style="" viewBox="0 0 1024 1024" version="1.1" xmlns="http://www.w3.org/2000/svg" p-id="12582" xmlns:xlink="http://www.w3.org/1999/xlink" width="200" height="200"><defs><style type="text/css"></style></defs><path d="M508.1 859c-73.6 0-143.5-23.2-201.6-65.9-15.5-11.6-19.3-31.1-7.7-46.5 11.6-15.4 31.1-19.3 46.5-7.7 46.5 34.9 100.8 54.3 159 54.3 3.8 0 7.5-0.7 11.2-0.8V319.7c-1.2 0-2.3 0.3-3.5 0.3-42.8 0-77.5-34.7-77.5-77.5S469.2 165 512 165c1.2 0 2.3 0.3 3.5 0.3V0H159.1C71.2 0 0 71.2 0 159.1v705.8C0 952.8 71.2 1024 159.1 1024h356.3V858.7c-2.4 0.1-4.8 0.3-7.3 0.3zM364.7 227.1c15.5-7.7 34.9 0 42.7 15.5 7.7 15.5 0 34.9-15.5 42.7-89.2 46.5-147.3 139.6-147.3 240.4 0 19.3-15.5 34.9-34.9 34.9s-34.9-15.5-34.9-34.9c-0.1-128.1 73.6-244.4 189.9-298.6zM163 657.4c0-42.8 34.7-77.5 77.5-77.5s77.5 34.7 77.5 77.5-34.6 77.6-77.4 77.6-77.6-34.8-77.6-77.6z" fill="#4DABF4" p-id="12583"></path><path d="M864.9 0H515.5v165.3c41.2 1.8 74.1 35.6 74.1 77.2s-32.9 75.4-74.1 77.2v472.5c50.5-2 100.3-17.1 140-49.6 15.5-11.6 34.9-7.7 46.5 7.7 11.6 15.5 7.7 34.9-7.7 46.5-48.7 37.4-111.7 60.2-178.8 61.8V1024h349.4c87.9 0 159.1-71.2 159.1-159.1V159.1C1024 71.2 952.8 0 864.9 0zM628.3 292.9c-15.5-7.7-23.2-27.2-15.5-46.5 7.7-15.5 27.2-23.2 46.5-15.5C767.9 289 833.7 401.5 833.7 521.7v7.7c3.9 23.2-11.6 38.8-31.1 38.8-19.3 0-34.9-15.5-34.9-34.9v-7.7c0.2-96.9-54.1-186.1-139.4-232.7zM861 669.1c0 42.8-34.7 77.5-77.5 77.5S706 711.9 706 669.1s34.7-77.5 77.5-77.5 77.5 34.7 77.5 77.5z" fill="#347BEC" p-id="12584"></path></svg>