<?xml version="1.0" standalone="no"?><!DOCTYPE svg PUBLIC "-//W3C//DTD SVG 1.1//EN" "http://www.w3.org/Graphics/SVG/1.1/DTD/svg11.dtd"><svg t="1560782131712" class="icon" style="" viewBox="0 0 1024 1024" version="1.1" xmlns="http://www.w3.org/2000/svg" p-id="2015" xmlns:xlink="http://www.w3.org/1999/xlink" width="200" height="200"><defs><style type="text/css"></style></defs><path d="M681.4 658.1l-178.1 14.1-179.1-14.1c-7.2 0-13.1-6.5-13.1-14.5v-123c0-8 5.9-14.5 13.1-14.5l180-14.1 177.2 14c7.2 0 13.1 6.5 13.1 14.5v123c0 8.1-5.8 14.6-13.1 14.6z" fill="#80BAFF" p-id="2016"></path><path d="M132.5 404.1c-3.9 0-7-3.1-7-7v-65.6c0-3.9 3.1-7 7-7s7 3.1 7 7v65.6c0 3.8-3.1 7-7 7zM204.2 404.1c-3.9 0-7-3.1-7-7v-65.6c0-3.9 3.1-7 7-7s7 3.1 7 7v65.6c0 3.8-3.2 7-7 7zM168.2 404.1c-3.9 0-7-3.1-7-7v-32.8c0-3.9 3.1-7 7-7s7 3.1 7 7v32.8c0 3.8-3.1 7-7 7zM629 893.6H403c-12.9 0-23.3-10.5-23.3-23.3v-20.7c0-12.9 10.5-23.3 23.3-23.3h226c12.9 0 23.3 10.5 23.3 23.3v20.7c0 12.8-10.5 23.3-23.3 23.3z m-226-53.4c-5.1 0-9.3 4.2-9.3 9.3v20.7c0 5.1 4.2 9.3 9.3 9.3h226c5.1 0 9.3-4.2 9.3-9.3v-20.7c0-5.1-4.2-9.3-9.3-9.3H403z" fill="#0084FF" p-id="2017"></path><path d="M548.3 840.2h-66.7v-140h66.7v140z m-52.7-14h38.7v-112h-38.7v112z" fill="#0084FF" p-id="2018"></path><path d="M516.9 713.1h-0.5l-324.6-23c-16.8-0.1-30.5-13.9-30.5-30.7V458.5c0-16.9 13.6-30.6 30.5-30.7l326.8-23h0.5l321 23c16.8 0.1 30.5 13.9 30.5 30.7v200.8c0 16.9-13.6 30.6-30.5 30.7l-323.2 23.1zM192.1 441.8c-9.2 0-16.7 7.5-16.7 16.7v200.8c0 9.2 7.5 16.7 16.7 16.7h0.5l324.3 23 322.7-23h0.2c9.2 0 16.7-7.5 16.7-16.7V458.5c0-9.2-7.5-16.7-16.7-16.7h-0.5l-320.8-23-326.3 23h-0.1z" fill="#0084FF" p-id="2019"></path><path d="M523.4 658.2h-0.5L344 644.1c-10.9-0.2-19.8-9.8-19.8-21.5v-123c0-11.8 8.8-21.4 19.8-21.5L523.8 464h1.1l176.8 14c10.9 0.2 19.8 9.8 19.8 21.5v123c0 11.8-8.8 21.4-19.8 21.5l-177.8 14.1c-0.2 0.1-0.4 0.1-0.5 0.1z m0.9-180.3l-179.5 14h-0.5c-3.4 0-6.1 3.4-6.1 7.5v123c0 4.2 2.7 7.5 6.1 7.5h0.5l178.5 14 177.5-14h0.6c3.4 0 6.1-3.4 6.1-7.5v-123c0-4.2-2.7-7.5-6.1-7.5h-0.6l-176.5-14z" fill="#0084FF" p-id="2020"></path><path d="M522.9 626c-35.8 0-65-29.2-65-65s29.2-65 65-65 65 29.2 65 65-29.2 65-65 65z m0-116c-28.1 0-51 22.9-51 51s22.9 51 51 51 51-22.9 51-51-22.9-51-51-51zM719.8 283.3c-1.9 0-3.8-0.8-5.1-2.3-50.5-54.9-122.3-86.6-196.9-87.2h-2c-75.2 0-147.4 31.6-198.6 86.8-2.6 2.8-7.1 3-9.9 0.4-2.8-2.6-3-7.1-0.4-9.9 26.6-28.8 58.2-51.4 93.9-67.1 36.3-16 74.9-24.2 114.8-24.2h2.2c40.1 0.3 78.7 8.8 115 25.1 35 15.8 66 38.2 92.1 66.6 2.6 2.8 2.4 7.3-0.4 9.9-1.3 1.3-3 1.9-4.7 1.9z" fill="#0084FF" p-id="2021"></path><path d="M658.3 325.6c-1.9 0-3.8-0.8-5.2-2.3-34.9-37.8-84.4-59.8-135.8-60.2h-1.4c-51.9 0-101.7 21.8-137 59.9-2.6 2.8-7.1 3-9.9 0.4s-3-7.1-0.4-9.9c37.9-41 91.5-64.4 147.3-64.4h1.5c28.3 0.2 55.5 6.2 81.1 17.7 24.7 11.2 46.5 27 64.9 46.9 2.6 2.8 2.4 7.3-0.4 9.9-1.3 1.4-3 2-4.7 2z" fill="#0084FF" p-id="2022"></path><path d="M570.5 361.9c-1.9 0-3.8-0.8-5.2-2.3-12.5-13.5-29.5-21.1-47.9-21.2h-0.5c-18.3 0-35.9 7.7-48.3 21.1-2.6 2.8-7.1 3-9.9 0.4-2.8-2.6-3-7.1-0.4-9.9 15.2-16.4 36.8-25.8 59.2-25.6 22 0.2 43.2 9.5 58.1 25.7 2.6 2.8 2.4 7.3-0.4 9.9-1.3 1.3-3 1.9-4.7 1.9z" fill="#0084FF" p-id="2023"></path></svg>