<?xml version="1.0" standalone="no"?><!DOCTYPE svg PUBLIC "-//W3C//DTD SVG 1.1//EN" "http://www.w3.org/Graphics/SVG/1.1/DTD/svg11.dtd"><svg t="1560786905991" class="icon" style="" viewBox="0 0 1024 1024" version="1.1" xmlns="http://www.w3.org/2000/svg" p-id="2773" xmlns:xlink="http://www.w3.org/1999/xlink" width="200" height="200"><defs><style type="text/css"></style></defs><path d="M192 243.2v435.2h640v-435.2H192zM153.6 166.4h716.8a38.4 38.4 0 0 1 38.4 38.4v512a38.4 38.4 0 0 1-38.4 38.4H153.6a38.4 38.4 0 0 1-38.4-38.4V204.8A38.4 38.4 0 0 1 153.6 166.4zM204.8 908.8a38.4 38.4 0 1 1 0-76.8h614.4a38.4 38.4 0 1 1 0 76.8H204.8z" fill="#2E3344" p-id="2774"></path><path d="M436.8384 536.064a38.4 38.4 0 0 1-54.272 54.4256L280.064 488.192a38.4 38.4 0 0 1 0-54.272L382.464 331.264a38.4 38.4 0 1 1 54.3744 54.272L361.472 460.9536l75.264 75.1616zM662.528 460.9536l-75.264 75.1616a38.4 38.4 0 1 0 54.272 54.3744l102.5024-102.2976a38.4 38.4 0 0 0 0-54.272L641.6384 331.264a38.4 38.4 0 1 0-54.3744 54.272l75.3664 75.4176z" fill="#2E3344" p-id="2775"></path></svg>