<?xml version="1.0" standalone="no"?><!DOCTYPE svg PUBLIC "-//W3C//DTD SVG 1.1//EN" "http://www.w3.org/Graphics/SVG/1.1/DTD/svg11.dtd"><svg t="1560613954234" class="icon" style="" viewBox="0 0 1024 1024" version="1.1" xmlns="http://www.w3.org/2000/svg" p-id="6719" xmlns:xlink="http://www.w3.org/1999/xlink" width="200" height="200"><defs><style type="text/css"></style></defs><path d="M412.8 447.2l203.5 92.9 205-180.3c3.1-15 4.3-29.5 4.3-45.3 0-126.7-102.9-229.9-229.4-229.9-75.8 0-146.1 37.4-188.9 100l-34.2 177.5 39.7 85.1z" fill="#CDD6D7" p-id="6720"></path><path d="M202.3 663c-3.1 15-4.3 30.3-4.3 46.1 0 127.1 103.3 230.3 230.2 230.3 76.2 0 147.3-37.8 190.1-100.8L652 661.8l-45.2-86.6-204.3-93.3L202.3 663z" fill="#AAB7B7" p-id="6721"></path><path d="M201.1 310.3l139.4 33.1 30.6-158.6c-18.9-14.6-42.4-22.4-66.8-22.4-60.5 0-110 49.2-110 110.2 0.1 12.9 2.5 25.9 6.8 37.7" fill="#758789" p-id="6722"></path><path d="M188.9 343.7c-62.1 20.5-105.7 80.3-105.7 146 0 64.2 39.7 121.2 99 144.1l195.6-177.1-35.7-76.8-153.2-36.2z" fill="#CDCDCD" p-id="6723"></path><path d="M653.6 838.5c19.2 14.6 42.4 22.8 66.4 22.8 60.5 0 110-49.2 110-110.2 0-13.4-2.4-26.4-6.7-38.2l-139.1-32.7-30.6 158.3z" fill="#A6B0B1" p-id="6724"></path><path d="M681.9 643.7l153.2 35.8c62.5-20.5 105.7-80.3 105.7-146.4 0-63.8-39.7-121.2-99-143.7l-200.3 176 40.4 78.3z" fill="#849FA0" p-id="6725"></path></svg>