<?xml version="1.0" standalone="no"?><!DOCTYPE svg PUBLIC "-//W3C//DTD SVG 1.1//EN" "http://www.w3.org/Graphics/SVG/1.1/DTD/svg11.dtd"><svg t="1560683552317" class="icon" style="" viewBox="0 0 1024 1024" version="1.1" xmlns="http://www.w3.org/2000/svg" p-id="13332" xmlns:xlink="http://www.w3.org/1999/xlink" width="200" height="200"><defs><style type="text/css"></style></defs><path d="M938.5984 789.2992H597.4016v128h85.4016c23.552 0 42.5984 19.0464 42.5984 42.5984s-19.0464 42.5984-42.5984 42.5984H341.4016c-23.552 0-42.5984-19.0464-42.5984-42.5984s19.0464-42.5984 42.5984-42.5984h85.4016v-128H85.4016c-47.104 0-85.4016-38.2976-85.4016-85.4016V106.9056c0-47.104 38.2976-85.4016 85.4016-85.4016h852.992c47.104 0 85.4016 38.2976 85.4016 85.4016v597.1968c0 46.8992-38.0928 85.1968-85.1968 85.1968z m0-213.4016H85.4016v85.4016h852.992v-85.4016z m0 0" fill="#999999" p-id="13333"></path></svg>