<?xml version="1.0" standalone="no"?><!DOCTYPE svg PUBLIC "-//W3C//DTD SVG 1.1//EN" "http://www.w3.org/Graphics/SVG/1.1/DTD/svg11.dtd"><svg t="1560615807033" class="icon" style="" viewBox="0 0 1024 1024" version="1.1" xmlns="http://www.w3.org/2000/svg" p-id="11098" xmlns:xlink="http://www.w3.org/1999/xlink" width="200" height="200"><defs><style type="text/css"></style></defs><path d="M0 0h1024v1024H0z" fill="#FFFFFF" p-id="11099"></path><path d="M512 1006.51008l-475.25888-118.784a30.4128 30.4128 0 0 1-23.04-29.4912V48.86528A30.43328 30.43328 0 0 1 51.48672 19.3536l437.47328 109.38368A30.4128 30.4128 0 0 1 512 158.22848z" fill="#00A190" p-id="11100"></path><path d="M512 1006.51008l475.25888-118.784a30.4128 30.4128 0 0 0 23.04-29.4912V48.86528A30.43328 30.43328 0 0 0 972.4928 19.3536L535.01952 128.73728A30.4128 30.4128 0 0 0 512 158.22848z" fill="#00A190" p-id="11101"></path><path d="M410.76736 655.03232l-293.31456-75.776c-9.07264-0.28672-15.44192-1.31072-15.44192-2.49856v-68.58752a56.58624 56.58624 0 0 1 25.33376-2.49856l293.31456 75.776c9.07264 0.28672 15.44192 1.31072 15.44192 2.49856v68.58752a56.56576 56.56576 0 0 1-25.33376 2.49856z" fill="#04DFCB" p-id="11102"></path><path d="M618.88512 655.03232l293.31456-75.776c9.07264-0.28672 15.44192-1.31072 15.44192-2.49856v-68.58752a56.58624 56.58624 0 0 0-25.33376-2.49856l-293.31456 75.776c-9.07264 0.28672-15.44192 1.31072-15.44192 2.49856v68.58752a56.56576 56.56576 0 0 0 25.33376 2.49856z" fill="#04DFCB" p-id="11103"></path><path d="M410.76736 470.71232l-293.31456-75.776c-9.07264-0.28672-15.44192-1.31072-15.44192-2.49856v-68.58752a56.58624 56.58624 0 0 1 25.33376-2.49856l293.31456 75.776c9.07264 0.28672 15.44192 1.31072 15.44192 2.49856v68.58752a56.56576 56.56576 0 0 1-25.33376 2.49856z" fill="#04DFCB" p-id="11104"></path><path d="M618.88512 470.71232l293.31456-75.776c9.07264-0.28672 15.44192-1.31072 15.44192-2.49856v-68.58752a56.58624 56.58624 0 0 0-25.33376-2.49856l-293.31456 75.776c-9.07264 0.28672-15.44192 1.31072-15.44192 2.49856v68.58752a56.56576 56.56576 0 0 0 25.33376 2.49856z" fill="#04DFCB" p-id="11105"></path></svg>