<?xml version="1.0" standalone="no"?><!DOCTYPE svg PUBLIC "-//W3C//DTD SVG 1.1//EN" "http://www.w3.org/Graphics/SVG/1.1/DTD/svg11.dtd"><svg t="1560615651854" class="icon" style="" viewBox="0 0 1080 1024" version="1.1" xmlns="http://www.w3.org/2000/svg" p-id="7481" xmlns:xlink="http://www.w3.org/1999/xlink" width="210.9375" height="200"><defs><style type="text/css"></style></defs><path d="M527.872 419.157333a181.361778 181.361778 0 0 1-181.134222-181.134222A181.361778 181.361778 0 0 1 527.872 56.888889a181.361778 181.361778 0 0 1 181.134222 181.134222 181.361778 181.361778 0 0 1-181.134222 181.134222z m0-289.792c-59.960889 0-108.657778 48.753778-108.657778 108.657778s48.696889 108.657778 108.657778 108.657778c59.904 0 108.657778-48.753778 108.657778-108.657778s-48.753778-108.657778-108.657778-108.657778z m289.792 785.578667a181.361778 181.361778 0 0 1-181.134222-181.134222 181.361778 181.361778 0 0 1 181.134222-181.134222 181.361778 181.361778 0 0 1 181.134222 181.134222 181.361778 181.361778 0 0 1-181.134222 181.134222z m0-289.848889c-59.904 0-108.657778 48.810667-108.657778 108.657778 0 59.960889 48.753778 108.714667 108.657778 108.714667s108.657778-48.753778 108.657778-108.657778-48.753778-108.657778-108.657778-108.657778zM238.023111 914.944A181.361778 181.361778 0 0 1 56.888889 733.809778a181.361778 181.361778 0 0 1 181.134222-181.134222 181.361778 181.361778 0 0 1 181.134222 181.134222 181.361778 181.361778 0 0 1-181.134222 181.134222z m0-289.848889c-59.904 0-108.657778 48.810667-108.657778 108.657778 0 59.960889 48.753778 108.714667 108.657778 108.714667s108.657778-48.753778 108.657778-108.657778-48.753778-108.657778-108.657778-108.657778z" fill="#1296db" p-id="7482"></path><path d="M211.456 521.500444a36.238222 36.238222 0 0 1-35.214222-44.942222 361.642667 361.642667 0 0 1 190.008889-236.771555 36.238222 36.238222 0 1 1 32.426666 64.796444 289.450667 289.450667 0 0 0-152.120889 189.44 36.238222 36.238222 0 0 1-35.100444 27.477333z m316.416 404.878223A360.049778 360.049778 0 0 1 323.128889 863.004444a36.238222 36.238222 0 1 1 40.96-59.733333 292.238222 292.238222 0 0 0 234.780444 41.813333 36.238222 36.238222 0 1 1 17.635556 70.314667 363.633778 363.633778 0 0 1-88.746667 10.979556z m325.176889-302.023111a36.238222 36.238222 0 0 1-36.124445-38.912 288.085333 288.085333 0 0 0-82.773333-224.938667 36.238222 36.238222 0 1 1 51.541333-50.915556 360.106667 360.106667 0 0 1 103.480889 281.258667 36.238222 36.238222 0 0 1-36.124444 33.564444z" fill="#1296db" p-id="7483"></path><path d="M206.279111 521.500444a36.238222 36.238222 0 0 1-34.929778-26.851555l-18.773333-69.973333a36.238222 36.238222 0 1 1 69.973333-18.773334l18.773334 69.973334a36.238222 36.238222 0 0 1-35.043556 45.624888z m623.672889-131.413333a35.271111 35.271111 0 0 1-9.443556-1.308444l-69.973333-18.773334a36.238222 36.238222 0 1 1 18.773333-69.973333l69.973334 18.773333a36.238222 36.238222 0 0 1-9.329778 71.224889z m-273.408 576.853333a36.181333 36.181333 0 0 1-25.6-61.838222l51.2-51.2a36.238222 36.238222 0 0 1 51.256889 51.2l-51.2 51.2a36.181333 36.181333 0 0 1-25.656889 10.638222z" fill="#1296db" p-id="7484"></path></svg>